<svg xmlns="http://www.w3.org/2000/svg" viewBox="0 0 256 256" xml:space="preserve" width="64" height="64">
    <path fill="#6DCC6D" d="M162.1 2.5H93.9c-9.2 0-16.6 7.5-16.6 16.6v29.1c0 9.2 7.5 16.6 16.6 16.6h17.6c2 0 4 1 5.1 2.7l9.9 15.1c.5.8 1.6 1 2.4.5l.5-.5 9.9-15.1a6 6 0 0 1 5.1-2.7H162c9.2 0 16.6-7.5 16.6-16.6V19.1c.1-9.1-7.3-16.6-16.5-16.6z"/>
    <path fill="#FFCD29" d="M234.9 32.7h-49.8c-2.3 0-4.5.6-6.4 1.9v13.6c0 4.8-2.1 9.4-5.7 12.5v5.4c0 6.7 5.4 12.1 12.1 12.2H198c1.5 0 2.9.8 3.7 2l7.3 11c.4.6 1.2.7 1.8.4l.4-.4 7.3-11c.8-1.2 2.2-2 3.7-2h12.9c6.7 0 12.1-5.4 12.1-12.2V44.9a12.5 12.5 0 0 0-12.3-12.2z"/>
    <path fill="#55ACD5" d="M77.3 48.2V34.6a12 12 0 0 0-6.4-1.9H21.1C14.4 32.8 9 38.2 9 44.9v21.3c0 6.7 5.4 12.1 12.1 12.2H34c1.5 0 2.9.8 3.7 2l7.3 11c.4.6 1.2.7 1.8.4l.4-.4 7.3-11c.8-1.2 2.2-2 3.7-2h12.9c6.7 0 12.1-5.4 12.2-12.2v-5.4c-3.9-3.2-6-7.8-6-12.6z"/>
    <path fill="#6D6C6B" d="M146.6 96.7c-2.5 0-4.9.7-7.1 2a14 14 0 0 0-11.8-6.8h-7.1a25 25 0 0 0-25 25v11.2a10 10 0 0 1 7.8-2.1v-1.2c0-.7.6-1.3 1.3-1.3h.3c4.4.9 17.4 2.5 26.2-8.6.4-.6 1.3-.7 1.8-.2l.1.1c2 2 7.3 6 17.4 6.3.7 0 1.2.6 1.2 1.3v3.6c3.1-.5 6.3.5 8.6 2.7v-18.2c0-7.6-6.1-13.8-13.7-13.8z"/>
    <path fill="#898989" d="M45.2 104.8c-14.8 0-26.7 12-26.8 26.8v18.5c0 3.8.8 7.7 2.4 11.1 1.1 2.5 3.6 4 6.3 4h10.3v-2a18.7 18.7 0 0 1-10.3-17v-8.4c0-1.2 1-2.2 2.2-2.2h.7c5.6 0 10.9-2.5 14.4-6.9.8-.9 2.1-1.1 3.1-.3l.3.3c3.5 4.4 8.8 6.9 14.4 6.9 1.2 0 2.2.9 2.2 2.1v8.8c0 6.8-3.8 13.1-9.8 16.4v2.3h8.6a7 7 0 0 0 6.3-4c1.6-3.5 2.5-7.3 2.4-11.1v-18.5c0-14.8-12-26.8-26.7-26.8z"/>
    <path fill="#E9E9EA" d="M210 101.5c-14.3 0-26 10.9-26 24.3v8.3a8.6 8.6 0 0 1 5.7-1.1v-.5s5.6-3.1 5.6-7.9v-.1a3.9 3.9 0 0 1 4.8-3.8 46.3 46.3 0 0 0 19.6 0 4 4 0 0 1 4.8 2.8l.1.9v.1c0 4.7 5.6 7.9 5.6 7.9v.5l1.3-.1c1.5 0 3.1.4 4.4 1.2v-8.3c.1-13.2-11.6-24.2-25.9-24.2z"/>
    <path fill="#F9D0B4" d="M45.7 165.3c-2.9 0-5.7-.7-8.3-2v6.9l2.9 8.4c.2.5.6.8 1.2.8h9c.5 0 1-.3 1.2-.8l2.9-8.4V163a18.4 18.4 0 0 1-8.9 2.3zM231.6 133l-1.4.1.1 1.3v13.1l-.1 1.3 1.4.1a8 8 0 1 0 1.1-15.9 2 2 0 0 0-1.1 0zM189.7 134.3l.1-1.3-1.4-.1a8 8 0 1 0-1.1 15.9h1.1l1.4-.1-.1-1.3v-13.1z"/>
    <path fill="#F9D0B4" d="M224.7 124.7v-.1c0-2.2-1.8-3.9-3.9-3.9l-.9.1a46.3 46.3 0 0 1-19.6 0 4 4 0 0 0-4.8 2.8l-.1.9v.1c0 4.7-5.6 7.9-5.6 7.9V147c0 9.8 7.8 18.4 18.3 19.3 12 1.1 22.3-7.8 22.3-18.9v-14.9c-.1.1-5.7-3.1-5.7-7.8zM153.4 125.9l-1.6.1.1 1.6v16.7l-.1 1.6a10 10 0 1 0 3.3-19.9l-1.7-.1zM103.5 127.6l.1-1.6a10 10 0 1 0 .1 19.9l-.1-1.6-.1-16.7z"/>
    <path fill="#F9D0B4" d="M151.8 122.4c0-.7-.6-1.2-1.2-1.3-10-.3-15.3-4.3-17.4-6.3-.5-.5-1.3-.5-1.8 0l-.1.1c-8.8 11.1-21.9 9.5-26.2 8.6-.7-.1-1.4.3-1.5 1v19.8a24.1 24.1 0 0 0 48.3 0v-21.5l-.1-.4z"/>
    <path fill="#F9D0B4" d="M127.6 168.5c-3.7 0-7.4-.9-10.8-2.6v8.9l3.8 10.9c.2.6.8 1.1 1.5 1.1h11.7c.7 0 1.3-.4 1.5-1.1l3.8-10.9v-9.3a23 23 0 0 1-11.5 3zM62.1 135.7c-5.6 0-10.9-2.5-14.5-6.9a2.2 2.2 0 0 0-3.1-.3l-.3.3a18.3 18.3 0 0 1-14.4 6.9h-.6c-1.2 0-2.2.9-2.2 2.1v8.5a19 19 0 0 0 16.8 19c10.3 1 19.4-6.5 20.4-16.8l.1-1.7V138c.1-1.4-.9-2.3-2.2-2.3.1 0 0 0 0 0zM208 166.3c-2.3-.2-4.5-.8-6.6-1.7v5.7l2.9 8.4c.2.5.6.8 1.2.8h9c.5 0 1-.3 1.2-.8l2.9-8.4v-5.6c-3.3 1.3-7 1.9-10.6 1.6z"/>
    <path fill="#E9E9EA" d="m179.4 246.9-3-53.1a9.4 9.4 0 0 0-7.2-8.7l-18.8-4.7-11.3-5.6-3.8 10.9c-.2.6-.8 1.1-1.5 1.1h-11.7c-.7 0-1.3-.4-1.5-1.1l-3.8-10.9-11.3 5.6-18.8 4.7c-4.1 1-7 4.6-7.2 8.7l-3 53.1a6.3 6.3 0 0 0 5.9 6.6H173c3.4 0 6.2-2.8 6.2-6.2.2-.1.2-.2.2-.4z"/>
    <path fill="#B26E3B" d="m249.6 225.1-1.8-31.6a19 19 0 0 0-14.4-17.4l-6.1-1.5-8.7-4.3-2.9 8.4c-.2.5-.6.8-1.2.8h-9c-.5 0-1-.3-1.2-.8l-2.9-8.4-8.7 4.3-6.1 1.5c-6 1.5-10.8 5.8-13.1 11.5a9.5 9.5 0 0 1 2.9 6.3l2.1 37h65.7c3 0 5.5-2.4 5.5-5.5l-.1-.3z"/>
    <path fill="#FC7783" d="m69.4 176-6.1-1.5-8.7-4.3-2.9 8.4c-.2.5-.6.8-1.2.8h-9c-.5 0-1-.3-1.2-.8l-2.9-8.4-8.7 4.3-6.1 1.5a19 19 0 0 0-14.4 17.4L6.4 225c-.2 3 2.1 5.6 5.2 5.8h66l2.1-37a9.3 9.3 0 0 1 2.9-6.3c-2.4-5.7-7.2-10-13.2-11.5z"/>
    <path fill="#FFCD29" d="m225 2-.1-.5-.2-.4-.3-.4c-1-1-2.5-1-3.5 0l-.3.4-.2.4-.1.5-.1.5.1.5.1.5.2.4.3.4c1 .9 2.5.9 3.5 0l.3-.4.2-.4.1-.5.1-.5-.1-.5z"/>
    <path fill="#55ACD5" d="m57 17.4-.4-.9-.3-.4c-1-.9-2.5-.9-3.5 0l-.3.4-.2.4-.1.5v1l.1.5.2.4.3.4c1 1 2.5 1 3.5 0l.3-.4.2-.4.1-.5c.2-.3.2-.7.1-1z"/>
    <path fill="#EA4647" d="M209.8 12.4a9.4 9.4 0 0 1-7.5-7.5c0-.1-.1-.2-.2-.1l-.1.1a9.4 9.4 0 0 1-7.5 7.5c-.1 0-.2.1-.1.2l.1.1c3.8.7 6.8 3.7 7.5 7.5 0 .1.1.2.2.1l.1-.1a9.4 9.4 0 0 1 7.5-7.5c.1 0 .2-.1.1-.2l-.1-.1z"/>
    <path fill="#6DCC6D" d="M84.1 96.7h-1.8v-1.8c0-1.4-1.1-2.5-2.5-2.5s-2.5 1.1-2.5 2.5v1.8h-1.8c-1.4 0-2.5 1.1-2.5 2.5s1.1 2.5 2.5 2.5h1.8v1.8c0 1.4 1.1 2.5 2.5 2.5s2.5-1.1 2.5-2.5v-1.8h1.8c1.4 0 2.5-1.1 2.5-2.5s-1.1-2.5-2.5-2.5z"/>
    <path fill="#231F20" d="M162.1 0H93.9a19.2 19.2 0 0 0-19.1 19.1v29.1c0 10.6 8.6 19.1 19.1 19.1h17.6c1.2 0 2.3.6 3 1.6l9.9 15.1a4.3 4.3 0 0 0 7.1 0l9.9-15.1c.7-1 1.8-1.6 3-1.6H162c10.6 0 19.1-8.6 19.1-19.1V19.1a19 19 0 0 0-19-19.1zm14.1 48.2a14 14 0 0 1-14.1 14.1h-17.6a8.5 8.5 0 0 0-7.2 3.9L128 80.3l-9.3-14.1a8.7 8.7 0 0 0-7.2-3.9H93.9a14 14 0 0 1-14.1-14.1V19.1A14 14 0 0 1 93.9 5H162a14 14 0 0 1 14.1 14.1v29.1z"/>
    <path fill="#231F20" d="M234.9 30.2h-49.8c-2.7 0-5.4.8-7.8 2.2-.7.5-1.2 1.3-1.2 2.1v13.6c0 4.1-1.8 8-4.9 10.6-.5.5-.9 1.2-.9 1.9V66c0 8.1 6.6 14.6 14.6 14.7H198c.7 0 1.3.3 1.6.9l7.3 11a3.8 3.8 0 0 0 5.2 1.1c.4-.3.8-.6 1.1-1.1l7.3-11c.4-.5 1-.9 1.6-.9H235c8.1 0 14.6-6.6 14.6-14.7V44.9a14.9 14.9 0 0 0-14.7-14.7zm9.6 35.9c0 5.3-4.3 9.6-9.6 9.7H222a7.1 7.1 0 0 0-5.8 3.1l-6.2 9.4-6.2-9.4a6.9 6.9 0 0 0-5.8-3.1h-12.9a9.6 9.6 0 0 1-9.6-9.7v-4.3c3.7-3.6 5.7-8.5 5.7-13.6V36.1a9 9 0 0 1 3.9-.9h49.8c5.3 0 9.6 4.3 9.6 9.7v21.2zM84.7 58.9a14.2 14.2 0 0 1-4.9-10.6V34.6c0-.9-.4-1.7-1.2-2.1-2.3-1.5-5-2.2-7.8-2.2H21.1c-8.1 0-14.6 6.6-14.6 14.6v21.3c0 8.1 6.6 14.6 14.6 14.7H34c.7 0 1.3.3 1.6.9l7.3 11a3.8 3.8 0 0 0 5.2 1.1c.4-.3.8-.6 1.1-1.1l7.3-11c.4-.5 1-.9 1.6-.9H71c8.1 0 14.6-6.6 14.7-14.7v-5.4c-.2-.8-.5-1.5-1-1.9zm-4.2 7.2c0 5.3-4.3 9.6-9.7 9.7H58a7.1 7.1 0 0 0-5.8 3.1L46 88.3l-6.2-9.4a6.9 6.9 0 0 0-5.8-3.1H21.1a9.6 9.6 0 0 1-9.6-9.7V44.9c0-5.3 4.3-9.6 9.6-9.7h49.8c1.4 0 2.7.3 3.9.9v12.1c0 5.1 2.1 10 5.7 13.6v4.3zM154.8 17.9l-54.5.2c-1.4 0-2.5 1.1-2.5 2.5s1.1 2.5 2.5 2.5l54.5-.2c1.4 0 2.5-1.1 2.5-2.5s-1.1-2.5-2.5-2.5zM154.9 31.1l-54.5.2c-1.4 0-2.5 1.1-2.5 2.5s1.1 2.5 2.5 2.5l54.5-.2c1.4 0 2.5-1.1 2.5-2.5s-1.1-2.5-2.5-2.5zM154.9 44.3l-54.5.2c-1.4 0-2.5 1.1-2.5 2.5s1.1 2.5 2.5 2.5l54.5-.2c1.4 0 2.5-1.1 2.5-2.5 0-1.3-1.1-2.4-2.5-2.5zM67.8 200.3a2.5 2.5 0 0 0-2.5 2.5v28.1c0 1.4 1.1 2.5 2.5 2.5s2.5-1.1 2.5-2.5v-28.1c0-1.4-1.1-2.5-2.5-2.5zM23.6 200.3a2.5 2.5 0 0 0-2.5 2.5v28.1c0 1.4 1.1 2.5 2.5 2.5s2.5-1.1 2.5-2.5v-28.1c0-1.4-1.1-2.5-2.5-2.5zM55.8 160.9c-.8-.5-1.7-.5-2.5 0a16.2 16.2 0 0 1-14.9.3 2.6 2.6 0 0 0-3.4 1.1 2 2 0 0 0-.3 1.1v6.9l.1.8 2.9 8.4a3.7 3.7 0 0 0 3.5 2.5h9c1.6 0 3-1 3.5-2.5l2.9-8.4.1-.8V163c.4-.9-.1-1.7-.9-2.1zm-3.7 8.9-2.5 7.2h-7.2l-2.5-7.2V167c4 1.1 8.2 1.1 12.2-.2v3zM231.6 130.5l-1.7.1a2.4 2.4 0 0 0-2.1 2.6V148.5c-.1 1.3.8 2.5 2.1 2.7l1.7.1c6 0 11-4.7 11-10.4s-4.9-10.4-11-10.4zm1.2 15.7v-10.6c2.9.3 5.1 2.9 4.7 5.9a5.3 5.3 0 0 1-4.7 4.7zM192.2 134.3v-1.1c.1-1.3-.8-2.5-2.1-2.7l-1.7-.1c-6 0-11 4.7-11 10.4s4.9 10.4 11 10.4l1.7-.1a2.5 2.5 0 0 0 2.1-2.7v-14.1zm-5 11.9a5.2 5.2 0 0 1-4.7-5.9 5.2 5.2 0 0 1 4.7-4.7v10.6z"/>
    <path fill="#231F20" d="M231.5 130.4c-1.2-.7-4.3-3-4.3-5.7v-.1c0-1.9-.8-3.8-2.3-5-1.6-1.3-3.6-1.7-5.6-1.3a44.4 44.4 0 0 1-18.5 0c-2-.5-4 0-5.6 1.3a6.2 6.2 0 0 0-2.3 5.1c0 2.7-3.1 5-4.3 5.7-.8.4-1.3 1.3-1.3 2.2V147a22.4 22.4 0 0 0 22.8 21.9c5.9 0 11.5-2.1 15.9-6.1 4.4-3.9 6.9-9.5 6.9-15.4v-14.9c-.1-.8-.6-1.7-1.4-2.1zm-3.7 17c0 4.5-2 8.7-5.3 11.7a18.6 18.6 0 0 1-14.2 4.7c-9-.8-16-8.2-16-16.8v-13.1c2-1.4 5.6-4.7 5.6-9.2v-.2c0-.4.2-.7.5-1 .4-.3.9-.4 1.3-.3a48.6 48.6 0 0 0 20.8 0c.5-.1 1 0 1.3.3.3.2.5.6.5 1v.2c0 4.5 3.6 7.8 5.6 9.2l-.1 13.5zM231.8 200.3a2.5 2.5 0 0 0-2.5 2.5v28.1c0 1.4 1.1 2.5 2.5 2.5s2.5-1.1 2.5-2.5v-28.1c0-1.4-1.1-2.5-2.5-2.5zM187.7 200.3a2.5 2.5 0 0 0-2.5 2.5v28.1c0 1.4 1.1 2.5 2.5 2.5s2.5-1.1 2.5-2.5v-28.1c0-1.4-1.2-2.5-2.5-2.5zM181.9 246.8l-3-53.1a12 12 0 0 0-9.1-11l-18.5-4.7-11.1-5.4a2.5 2.5 0 0 0-3.3 1.1l-.1.3-3.6 10.3h-10.4l-3.6-10.3c-.5-1.3-1.9-2-3.2-1.5l-.3.1-11.1 5.4-18.5 4.7a12 12 0 0 0-9.1 11l-3 53.1a8.7 8.7 0 0 0 8.2 9.2H173c4.8 0 8.7-3.9 8.7-8.7.2-.2.2-.3.2-.5zm-6 3a4 4 0 0 1-2.7 1.2H82.8a3.7 3.7 0 0 1-3.7-3.7v-.2l3-53.1a7 7 0 0 1 5.3-6.4l18.8-4.7.5-.2 8.8-4.3 2.9 8.3a4.1 4.1 0 0 0 3.9 2.7H134c1.7 0 3.3-1.1 3.9-2.7l2.9-8.3 8.8 4.3.5.2 18.8 4.7a7 7 0 0 1 5.3 6.4l3 53.1c-.3 1-.6 2-1.3 2.7zM153.4 123.4l-2 .2a2.4 2.4 0 0 0-2.1 2.6l.1 1.5v16.7l-.1 1.5c-.1 1.3.8 2.4 2.1 2.6a12.6 12.6 0 0 0 4-24.8c-.7-.3-1.4-.3-2-.3zm.9 20.1v-15.1c4.2.5 7.1 4.3 6.6 8.5a7.6 7.6 0 0 1-6.6 6.6zM106 127.6l.1-1.5c.1-1.3-.8-2.4-2.1-2.6a12.6 12.6 0 0 0-4 24.8l2 .2 2-.2a2.4 2.4 0 0 0 2.1-2.6l-.1-1.5v-16.6zm-5 15.9a7.6 7.6 0 0 1-6.6-8.5 7.5 7.5 0 0 1 6.6-6.6v15.1z"/>
    <path fill="#231F20" d="M154.3 122.3c0-2-1.7-3.7-3.7-3.7-9.3-.3-14.1-4-15.7-5.6a3.9 3.9 0 0 0-5.4 0l-.3.3c-7.8 9.8-19.2 8.7-23.8 7.7-2-.4-4.1.9-4.5 2.9l-.1.8v19.4a26.7 26.7 0 1 0 53.4 0v-21.5l.1-.3zm-5 22a21.7 21.7 0 1 1-43.4 0v-18c5.3.8 17.6 1.4 26.4-8.8 2.8 2.4 8.1 5.6 16.9 6.1v20.7z"/>
    <path fill="#231F20" d="M146.6 94.2c-2.1 0-4.3.4-6.3 1.3-3.1-3.8-7.7-6-12.6-6.1h-7.1a27.5 27.5 0 0 0-27.5 27.5v11.2c0 1.4 1.1 2.5 2.5 2.5a3 3 0 0 0 1.6-.5 7.4 7.4 0 0 1 5.9-1.6c1.4.2 2.6-.7 2.9-2.1v-.1c5.3.8 17.6 1.4 26.5-8.8 2.8 2.4 8.1 5.6 16.9 6.1v2.4c0 1.4 1.1 2.5 2.5 2.5h.4l1.2-.1c2 0 3.9.8 5.3 2.1 1 1 2.6.9 3.5-.1.4-.5.7-1.1.7-1.7v-18.2c-.1-9-7.4-16.3-16.4-16.3zm11.3 30c-1.1-.4-2.3-.7-3.6-.8v-1.1c0-2-1.7-3.7-3.7-3.7-9.3-.3-14.1-4-15.7-5.6a3.9 3.9 0 0 0-5.4 0l-.3.3c-7.8 9.8-19.2 8.7-23.8 7.7-1.1-.2-2.3 0-3.2.8-.5.4-.9.9-1.1 1.5-1.1.1-2.1.3-3.1.6v-7.1a22.6 22.6 0 0 1 22.5-22.5h7.1c4 0 7.7 2.1 9.7 5.5a2.5 2.5 0 0 0 3.4.9 11.3 11.3 0 0 1 15.5 3.8c1.1 1.8 1.6 3.8 1.6 5.9l.1 13.8zM129.8 198.4c-.6-.6-1.4-.8-2.3-.7l-.5.1-.4.2-.4.3-.3.4-.2.4-.1.5v1l.1.5.2.4.3.4.4.3.4.2.5.1.5.1a2.5 2.5 0 0 0 1.8-4.2zM129.8 211.3c-.6-.6-1.4-.8-2.3-.7l-.5.1-.4.2-.4.3-.3.4-.2.4-.1.5v1l.1.5.2.4.3.4.4.3.4.2.5.1.5.1c.7 0 1.3-.3 1.8-.7.9-1 .9-2.5 0-3.5zM129.8 224.2c-.6-.6-1.4-.8-2.3-.7l-.5.1-.4.2-.4.3-.3.4-.2.4-.1.5v1l.1.5.2.4.3.4.4.3.4.2.5.1.5.1c.7 0 1.3-.3 1.8-.7.9-.9.9-2.5 0-3.5zM129.8 237.1c-.6-.6-1.4-.8-2.3-.7l-.5.1-.4.2-.4.3-.3.4-.2.4-.1.5v1l.1.5.2.4.3.4.4.3.4.2.5.1h.5c1.4 0 2.5-1.1 2.5-2.5 0-.5-.3-1.1-.7-1.6zM156.3 214.6a2.5 2.5 0 0 0-2.5 2.5v36.4c0 1.4 1.1 2.5 2.5 2.5s2.5-1.1 2.5-2.5v-36.4c0-1.4-1.1-2.5-2.5-2.5zM99 214.6a2.5 2.5 0 0 0-2.5 2.5v36.4c0 1.4 1.1 2.5 2.5 2.5s2.5-1.1 2.5-2.5v-36.4c0-1.4-1.1-2.5-2.5-2.5zM140.4 163.4c-.8-.5-1.7-.5-2.5 0a21.9 21.9 0 0 1-20 .3 2.6 2.6 0 0 0-3.4 1.1 2 2 0 0 0-.3 1.1v8.9l.1.8 3.8 10.9a4.1 4.1 0 0 0 3.9 2.7h11.7c1.7 0 3.3-1.1 3.9-2.7l3.8-10.9.1-.8v-9.3a2 2 0 0 0-1.1-2.1zm-3.8 11-3.5 9.9h-10.4l-3.5-9.9v-4.8a27.7 27.7 0 0 0 17.3-.2l.1 5zM65.5 134.6a4.8 4.8 0 0 0-3.4-1.4v2.5-2.5a16 16 0 0 1-12.5-6 4.7 4.7 0 0 0-7.3 0 16.1 16.1 0 0 1-13 6c-1.3-.1-2.5.4-3.4 1.3-.9.9-1.4 2.1-1.4 3.4v8.4a21.6 21.6 0 0 0 21.1 21.6c11.7 0 21.2-9.5 21.2-21.2v-8.8a4 4 0 0 0-1.3-3.3zm-3.6 12c0 4.6-1.9 8.9-5.3 11.9a15.8 15.8 0 0 1-12.4 4.1c-8.3-1-14.6-8.1-14.6-16.5v-8a21 21 0 0 0 16.4-7.5c3.9 4.7 9.7 7.5 15.9 7.5v8.5z"/>
    <path fill="#231F20" d="M45.2 102.3a29.3 29.3 0 0 0-29.3 29.3v18.5c0 4.2.9 8.4 2.7 12.2a9.6 9.6 0 0 0 8.6 5.5h10.3c1.4 0 2.5-1.1 2.5-2.5v-2c0-.9-.5-1.8-1.4-2.2-5.5-2.9-9-8.6-9-14.9v-8a21 21 0 0 0 16.4-7.5c3.9 4.7 9.7 7.5 15.9 7.5v8.4c0 5.9-3.3 11.4-8.5 14.2-.8.4-1.3 1.3-1.3 2.2v2.3c0 1.4 1.1 2.5 2.5 2.5h8.6c3.7 0 7-2.1 8.6-5.5 1.8-3.8 2.7-8 2.7-12.2v-18.5a29.4 29.4 0 0 0-29.3-29.3zm24.2 47.8c0 3.5-.8 6.9-2.2 10.1a4.4 4.4 0 0 1-4.1 2.6h-3.8a21 21 0 0 0 7.5-16.1v-8.8a4.8 4.8 0 0 0-4.8-4.7 16 16 0 0 1-12.5-6 4.7 4.7 0 0 0-7.3 0 16.1 16.1 0 0 1-13 6c-1.3-.1-2.5.4-3.4 1.3-.9.9-1.4 2.1-1.4 3.4v8.4a22 22 0 0 0 7.6 16.6h-5c-1.7 0-3.3-1-4.1-2.6a23.6 23.6 0 0 1-2.2-10.1v-18.5a24.3 24.3 0 0 1 48.6 0v18.4zM46 177a2.5 2.5 0 0 0-2.5 2.5v11.2c0 1.4 1.1 2.5 2.5 2.5s2.5-1.1 2.5-2.5v-11.2c0-1.4-1.1-2.5-2.5-2.5zM223.1 198h-7.5c-1.4 0-2.5 1.1-2.5 2.5s1.1 2.5 2.5 2.5h7.5c1.4 0 2.5-1.1 2.5-2.5s-1.2-2.5-2.5-2.5zM210 99c-15.7 0-28.5 12-28.5 26.8v8.3c0 1.4 1.1 2.5 2.5 2.5.4 0 .9-.1 1.2-.3 1-.5 2.1-.8 3.2-.8l.9.1c1.1.2 2.2-.4 2.7-1.5 1.9-1.4 5.8-4.7 5.8-9.4v-.2c0-.4.2-.7.5-1 .4-.3.9-.4 1.3-.3a48.6 48.6 0 0 0 20.8 0c.5-.1 1 0 1.3.3.3.2.5.6.5 1v.2c0 4.7 3.9 8 5.8 9.4.4 1 1.5 1.7 2.7 1.5l.9-.1c1.1 0 2.2.3 3.2.8 1.2.7 2.7.3 3.4-.9l.3-1.2v-8.3C238.5 111 225.7 99 210 99zm23.5 31.6-1.8-.2-.1-.1c-1.2-.7-4.3-3-4.3-5.8a6.4 6.4 0 0 0-7.9-6.3 44.4 44.4 0 0 1-18.5 0c-2-.5-4 0-5.6 1.3a6.2 6.2 0 0 0-2.3 5.1c0 2.7-3.1 5-4.3 5.7l-.1.1-1.8.2v-4.8c0-12 10.5-21.8 23.5-21.8s23.5 9.8 23.5 21.8l-.3 4.8zM220 162.5c-.7-.5-1.6-.5-2.4-.2a18.9 18.9 0 0 1-15.2 0c-1.3-.6-2.7 0-3.3 1.3l-.2 1v5.7l.1.8 2.9 8.4a3.7 3.7 0 0 0 3.5 2.5h9c1.6 0 3-1 3.5-2.5l2.9-8.4.1-.8v-5.6c.2-1-.2-1.8-.9-2.2zm-3.9 7.3-2.5 7.2h-7.2l-2.5-7.2v-1.7a23.2 23.2 0 0 0 12.2 0v1.7zM219.9 148.4l-3.9-1.6a5.2 5.2 0 0 0-5.6 1c-.2.2-.5.2-.7 0a5.7 5.7 0 0 0-5.6-1l-3.9 1.6a2.4 2.4 0 0 0-1.4 3.2 2.4 2.4 0 0 0 3.2 1.4l3.9-1.6c.2-.1.4 0 .5.1a5.5 5.5 0 0 0 7.2 0c.1-.1.3-.2.5-.1l3.9 1.6c1.3.5 2.7-.1 3.2-1.4.6-1.3 0-2.7-1.3-3.2z"/>
    <path fill="#231F20" d="m252.1 225-1.8-31.6a21.5 21.5 0 0 0-16.3-19.7l-5.9-1.5-8.5-4.2a2.5 2.5 0 0 0-3.3 1.1l-.1.3-2.6 7.6h-7.2l-2.6-7.6c-.5-1.3-1.9-2-3.2-1.5l-.3.1-8.5 4.2-5.9 1.5a21.7 21.7 0 0 0-14.8 13c-.4.9-.1 2 .6 2.7 1.3 1.2 2 2.9 2.1 4.7l2.1 37a2.6 2.6 0 0 0 2.5 2.4h65.7a8 8 0 0 0 8-8v-.5zm-5.8 2.5a3 3 0 0 1-2.2.9h-63.3l-1.9-34.7c-.1-2.4-1-4.7-2.5-6.6 2.2-4.3 6.1-7.4 10.8-8.6l6.1-1.5.5-.2 6.2-3 2 5.8a3.7 3.7 0 0 0 3.5 2.5h9c1.6 0 3-1 3.5-2.5l2-5.8 6.2 3 .5.2 6.1 1.5c7 1.8 12.1 7.9 12.5 15.1l1.8 31.6c.1.9-.2 1.7-.8 2.3zM84.8 186.6a21.7 21.7 0 0 0-14.8-13l-5.9-1.5-8.5-4.2a2.5 2.5 0 0 0-3.3 1.1l-.1.3-2.6 7.6h-7.2l-2.6-7.6c-.5-1.3-1.9-2-3.2-1.5l-.3.1-8.5 4.2-5.9 1.5a21.5 21.5 0 0 0-16.3 19.7L3.9 225a8 8 0 0 0 7.5 8.4H77.5c1.3 0 2.4-1 2.5-2.4l2.1-37c.1-1.8.9-3.4 2.1-4.7.8-.7 1-1.7.6-2.7zm-7.7 7.1-1.9 34.7H11.9a3 3 0 0 1-3-3v-.2l1.8-31.6c.4-7.3 5.5-13.4 12.5-15.1l6.1-1.5.5-.2 6.2-3 2 5.8a3.7 3.7 0 0 0 3.5 2.5h9c1.6 0 3-1 3.5-2.5l2-5.8 6.2 3 .5.2 6.1 1.5c4.7 1.2 8.6 4.3 10.8 8.6a11.4 11.4 0 0 0-2.5 6.6z"/>
</svg>
