<svg
	version="1.1"
	id="Layer_1"
	xmlns="http://www.w3.org/2000/svg"
	xmlns:xlink="http://www.w3.org/1999/xlink"
	width="24"
	height="24"
	viewBox="0 0 512 512"
	xml:space="preserve">
		<path d="M458.667,426.667c-14.549,0-27.392,7.339-35.115,18.496l-95.296-47.659c1.451-4.267,2.411-8.768,2.411-13.525
			c0-4.757-0.96-9.259-2.411-13.525l95.296-47.637c7.701,11.157,20.565,18.517,35.115,18.517c23.531,0,42.667-19.136,42.667-42.667
			c0-23.531-19.136-42.667-42.667-42.667S416,275.136,416,298.667c0,1.323,0.277,2.581,0.384,3.883l-99.883,49.941
			c-7.552-6.869-17.493-11.157-28.501-11.157c-23.531,0-42.667,19.136-42.667,42.667c0,23.531,19.136,42.667,42.667,42.667
			c11.008,0,20.949-4.288,28.523-11.157l99.861,49.941c-0.107,1.301-0.384,2.56-0.384,3.883C416,492.864,435.136,512,458.667,512
			s42.667-19.136,42.667-42.667C501.333,445.803,482.197,426.667,458.667,426.667z M458.667,277.333
			c11.755,0,21.333,9.557,21.333,21.333S470.421,320,458.667,320s-21.333-9.557-21.333-21.333S446.912,277.333,458.667,277.333z
			 M288,405.333c-11.755,0-21.333-9.557-21.333-21.333s9.579-21.333,21.333-21.333s21.333,9.557,21.333,21.333
			S299.755,405.333,288,405.333z M458.667,490.667c-11.755,0-21.333-9.557-21.333-21.333S446.912,448,458.667,448
			S480,457.557,480,469.333S470.421,490.667,458.667,490.667z"/>
		<path d="M426.667,0H64C34.603,0,10.667,23.915,10.667,53.333V416c0,29.419,23.936,53.333,53.333,53.333h192
			c5.888,0,10.667-4.779,10.667-10.667S261.888,448,256,448H64c-17.643,0-32-14.357-32-32V106.667h426.667V224
			c0,5.888,4.779,10.667,10.667,10.667c5.888,0,10.667-4.779,10.667-10.667V53.333C480,23.915,456.064,0,426.667,0z M458.667,85.333
			H32v-32c0-17.643,14.357-32,32-32h362.667c17.643,0,32,14.357,32,32V85.333z"/>
		<circle cx="64" cy="53.333" r="10.667"/>
		<circle cx="106.667" cy="53.333" r="10.667"/>
		<circle cx="149.333" cy="53.333" r="10.667"/>
</svg>
