<svg xmlns="http://www.w3.org/2000/svg" viewBox="0 0 512 512" xml:space="preserve">
  <path d="M458.7 426.7a42.7 42.7 0 0 0-35.1 18.5l-95.3-47.7c1.4-4.3 2.4-8.8 2.4-13.5 0-4.8-1-9.3-2.4-13.5l95.3-47.7a42.7 42.7 0 1 0-7.6-24.1c0 1.3.3 2.5.4 3.8l-99.9 50a42.2 42.2 0 0 0-28.5-11.2 42.7 42.7 0 0 0 0 85.4c11 0 21-4.3 28.5-11.2l99.9 50c-.1 1.3-.4 2.5-.4 3.8a42.7 42.7 0 1 0 42.7-42.6zm0-149.4a21.4 21.4 0 1 1 0 42.7 21.4 21.4 0 0 1 0-42.7zM288 405.3a21.4 21.4 0 1 1 0-42.7 21.4 21.4 0 0 1 0 42.7zm170.7 85.4a21.4 21.4 0 1 1 0-42.7 21.4 21.4 0 0 1 0 42.7z"/>
  <path d="M426.7 0H64C34.6 0 10.7 24 10.7 53.3V416c0 29.4 23.9 53.3 53.3 53.3h192a10.7 10.7 0 0 0 0-21.3H64a32 32 0 0 1-32-32V106.7h426.7V224a10.7 10.7 0 0 0 21.3 0V53.3C480 24 456 0 426.7 0zm32 85.3H32v-32a32 32 0 0 1 32-32h362.7a32 32 0 0 1 32 32v32z"/>
  <circle cx="64" cy="53.3" r="10.7"/>
  <circle cx="106.7" cy="53.3" r="10.7"/>
  <circle cx="149.3" cy="53.3" r="10.7"/>
</svg>
